# xmcd CD database file
#
# Track frame offsets:
#	150
#	14452
#	34009
#	53459
#	74304
#	92505
#	113167
#	131449
#	149672
#	164467
#	186770
#	205542
#
# Disc length: 3019 seconds
#
# Revision: 0
# Processed by: cddbd v1.5.2PL0 Copyright (c) Steve Scherf et al.
# Submitted via: CDex 1.51
#
DISCID=9e0bc90c
DTITLE=Bondi Cigars - Universal Stew
DYEAR=2009
DGENRE=Blues
TTITLE0=Joyful Sound
TTITLE1=Your Fine Frame
TTITLE2=Deeper Shade Of Blue
TTITLE3=You Got What You Wanted
TTITLE4=Cradle Of The Blues
TTITLE5=Stomping Ground
TTITLE6=Better Class Of Fool
TTITLE7=One Time Around
TTITLE8=That's How Strong My Love Is
TTITLE9=Slaughterman
TTITLE10=Out Of My Head
TTITLE11=All The Time In The World
EXTD=YEAR: 2009
EXTT0=
EXTT1=
EXTT2=
EXTT3=
EXTT4=
EXTT5=
EXTT6=
EXTT7=
EXTT8=
EXTT9=
EXTT10=
EXTT11=
PLAYORDER=
